<svg width="22" height="22" viewBox="0 0 22 22" fill="none" xmlns="http://www.w3.org/2000/svg">
<path d="M13.625 7.25H8.375C8.07663 7.25 7.79048 7.36853 7.5795 7.5795C7.36853 7.79048 7.25 8.07663 7.25 8.375V13.625C7.25 13.9234 7.36853 14.2095 7.5795 14.4205C7.79048 14.6315 8.07663 14.75 8.375 14.75H13.625C13.9234 14.75 14.2095 14.6315 14.4205 14.4205C14.6315 14.2095 14.75 13.9234 14.75 13.625V8.375C14.75 8.07663 14.6315 7.79048 14.4205 7.5795C14.2095 7.36853 13.9234 7.25 13.625 7.25ZM12.5 12.5H9.5V9.5H12.5V12.5ZM20.75 12.125H19.625V9.875H20.75C21.0484 9.875 21.3345 9.75647 21.5455 9.5455C21.7565 9.33452 21.875 9.04837 21.875 8.75C21.875 8.45163 21.7565 8.16548 21.5455 7.9545C21.3345 7.74353 21.0484 7.625 20.75 7.625H19.625V4.25C19.625 3.75272 19.4275 3.27581 19.0758 2.92417C18.7242 2.57254 18.2473 2.375 17.75 2.375H14.375V1.25C14.375 0.951631 14.2565 0.665483 14.0455 0.454505C13.8345 0.243526 13.5484 0.125 13.25 0.125C12.9516 0.125 12.6655 0.243526 12.4545 0.454505C12.2435 0.665483 12.125 0.951631 12.125 1.25V2.375H9.875V1.25C9.875 0.951631 9.75647 0.665483 9.5455 0.454505C9.33452 0.243526 9.04837 0.125 8.75 0.125C8.45163 0.125 8.16548 0.243526 7.9545 0.454505C7.74353 0.665483 7.625 0.951631 7.625 1.25V2.375H4.25C3.75272 2.375 3.27581 2.57254 2.92417 2.92417C2.57254 3.27581 2.375 3.75272 2.375 4.25V7.625H1.25C0.951631 7.625 0.665483 7.74353 0.454505 7.9545C0.243526 8.16548 0.125 8.45163 0.125 8.75C0.125 9.04837 0.243526 9.33452 0.454505 9.5455C0.665483 9.75647 0.951631 9.875 1.25 9.875H2.375V12.125H1.25C0.951631 12.125 0.665483 12.2435 0.454505 12.4545C0.243526 12.6655 0.125 12.9516 0.125 13.25C0.125 13.5484 0.243526 13.8345 0.454505 14.0455C0.665483 14.2565 0.951631 14.375 1.25 14.375H2.375V17.75C2.375 18.2473 2.57254 18.7242 2.92417 19.0758C3.27581 19.4275 3.75272 19.625 4.25 19.625H7.625V20.75C7.625 21.0484 7.74353 21.3345 7.9545 21.5455C8.16548 21.7565 8.45163 21.875 8.75 21.875C9.04837 21.875 9.33452 21.7565 9.5455 21.5455C9.75647 21.3345 9.875 21.0484 9.875 20.75V19.625H12.125V20.75C12.125 21.0484 12.2435 21.3345 12.4545 21.5455C12.6655 21.7565 12.9516 21.875 13.25 21.875C13.5484 21.875 13.8345 21.7565 14.0455 21.5455C14.2565 21.3345 14.375 21.0484 14.375 20.75V19.625H17.75C18.2473 19.625 18.7242 19.4275 19.0758 19.0758C19.4275 18.7242 19.625 18.2473 19.625 17.75V14.375H20.75C21.0484 14.375 21.3345 14.2565 21.5455 14.0455C21.7565 13.8345 21.875 13.5484 21.875 13.25C21.875 12.9516 21.7565 12.6655 21.5455 12.4545C21.3345 12.2435 21.0484 12.125 20.75 12.125ZM17.375 17.375H4.625V4.625H17.375V17.375Z" fill="white"/>
</svg>
