<svg width="24" height="22" viewBox="0 0 24 22" fill="none" xmlns="http://www.w3.org/2000/svg">
<path d="M0 1.25C0 1.05109 0.0790176 0.860322 0.21967 0.71967C0.360322 0.579018 0.551088 0.5 0.75 0.5H2.25C2.44891 0.5 2.63968 0.579018 2.78033 0.71967C2.92098 0.860322 3 1.05109 3 1.25V5H23.25C23.4489 5 23.6397 5.07902 23.7803 5.21967C23.921 5.36032 24 5.55109 24 5.75V16.25C24 16.4489 23.921 16.6397 23.7803 16.7803C23.6397 16.921 23.4489 17 23.25 17H3V20.75C3 20.9489 2.92098 21.1397 2.78033 21.2803C2.63968 21.421 2.44891 21.5 2.25 21.5C2.05109 21.5 1.86032 21.421 1.71967 21.2803C1.57902 21.1397 1.5 20.9489 1.5 20.75V2H0.75C0.551088 2 0.360322 1.92098 0.21967 1.78033C0.0790176 1.63968 0 1.44891 0 1.25ZM8.25 7.25C7.25544 7.25 6.30161 7.64509 5.59835 8.34835C4.89509 9.05161 4.5 10.0054 4.5 11C4.5 11.9946 4.89509 12.9484 5.59835 13.6517C6.30161 14.3549 7.25544 14.75 8.25 14.75C9.24456 14.75 10.1984 14.3549 10.9017 13.6517C11.6049 12.9484 12 11.9946 12 11C12 10.0054 11.6049 9.05161 10.9017 8.34835C10.1984 7.64509 9.24456 7.25 8.25 7.25ZM13.5 11C13.5 11.9946 13.8951 12.9484 14.5983 13.6517C15.3016 14.3549 16.2554 14.75 17.25 14.75C18.2446 14.75 19.1984 14.3549 19.9016 13.6517C20.6049 12.9484 21 11.9946 21 11C21 10.0054 20.6049 9.05161 19.9016 8.34835C19.1984 7.64509 18.2446 7.25 17.25 7.25C16.2554 7.25 15.3016 7.64509 14.5983 8.34835C13.8951 9.05161 13.5 10.0054 13.5 11Z" fill="white"/>
</svg>
