<svg width="20" height="21" viewBox="0 0 20 21" fill="none" xmlns="http://www.w3.org/2000/svg">
<path d="M18.6859 7.93158C18.6078 7.69137 18.4603 7.47965 18.2621 7.32311C18.0638 7.16657 17.8237 7.0722 17.5719 7.05189L12.9625 6.68002L11.1828 2.37611C11.0866 2.14159 10.9228 1.94099 10.7122 1.79981C10.5017 1.65863 10.2539 1.58325 10.0004 1.58325C9.74689 1.58325 9.49912 1.65863 9.28857 1.79981C9.07802 1.94099 8.91421 2.14159 8.81797 2.37611L7.03984 6.67924L2.42812 7.05189C2.17592 7.07322 1.93562 7.16851 1.73732 7.3258C1.53903 7.4831 1.39157 7.69542 1.31341 7.93616C1.23525 8.17689 1.22987 8.43534 1.29794 8.67912C1.36602 8.9229 1.50452 9.14117 1.69609 9.30658L5.21172 12.3402L4.14062 16.8761C4.08072 17.1225 4.09539 17.3812 4.18276 17.6193C4.27014 17.8574 4.42628 18.0641 4.63137 18.2133C4.83646 18.3625 5.08125 18.4473 5.33467 18.4571C5.58808 18.4669 5.83869 18.4012 6.05469 18.2683L10 15.8402L13.9477 18.2683C14.1637 18.3996 14.4138 18.4641 14.6665 18.4535C14.9191 18.443 15.1629 18.358 15.3673 18.2091C15.5717 18.0603 15.7275 17.8543 15.8151 17.6171C15.9026 17.3799 15.918 17.1221 15.8594 16.8761L14.7844 12.3394L18.3 9.3058C18.4931 9.14066 18.6329 8.92192 18.7016 8.67728C18.7703 8.43264 18.7649 8.17312 18.6859 7.93158ZM17.4875 8.35893L13.6828 11.6402C13.596 11.715 13.5315 11.8122 13.4962 11.9211C13.461 12.0301 13.4563 12.1467 13.4828 12.2581L14.6453 17.1644C14.6483 17.1712 14.6486 17.1788 14.6461 17.1858C14.6437 17.1928 14.6386 17.1985 14.632 17.2019C14.618 17.2128 14.6141 17.2105 14.6023 17.2019L10.3273 14.573C10.2289 14.5125 10.1156 14.4804 10 14.4804C9.88442 14.4804 9.77111 14.5125 9.67266 14.573L5.39766 17.2035C5.38594 17.2105 5.38281 17.2128 5.36797 17.2035C5.36137 17.2001 5.35632 17.1943 5.35385 17.1874C5.35138 17.1804 5.35168 17.1727 5.35469 17.166L6.51719 12.2597C6.54368 12.1483 6.53904 12.0317 6.50377 11.9227C6.4685 11.8137 6.40395 11.7165 6.31719 11.6417L2.5125 8.36049C2.50312 8.35268 2.49453 8.34564 2.50234 8.32143C2.51016 8.29721 2.51641 8.30033 2.52812 8.29877L7.52187 7.89564C7.63641 7.88582 7.74602 7.84459 7.83865 7.7765C7.93127 7.70841 8.00332 7.6161 8.04687 7.50971L9.97031 2.85267C9.97656 2.83939 9.97891 2.83314 9.99766 2.83314C10.0164 2.83314 10.0187 2.83939 10.025 2.85267L11.9531 7.50971C11.9971 7.61614 12.0696 7.70835 12.1626 7.77618C12.2557 7.84401 12.3657 7.88481 12.4805 7.89408L17.4742 8.29721C17.4859 8.29721 17.493 8.29721 17.5 8.31986C17.507 8.34252 17.5 8.35111 17.4875 8.35893Z" fill="white"/>
</svg>
