<svg width="22" height="16" viewBox="0 0 22 16" fill="none" xmlns="http://www.w3.org/2000/svg">
<path d="M4.25 3.5H17.75C17.9489 3.5 18.1397 3.57902 18.2803 3.71967C18.421 3.86032 18.5 4.05109 18.5 4.25V8.75C18.5 8.94891 18.421 9.13968 18.2803 9.28033C18.1397 9.42098 17.9489 9.5 17.75 9.5H4.25C4.05109 9.5 3.86032 9.42098 3.71967 9.28033C3.57902 9.13968 3.5 8.94891 3.5 8.75V4.25C3.5 4.05109 3.57902 3.86032 3.71967 3.71967C3.86032 3.57902 4.05109 3.5 4.25 3.5ZM12.5 8V5H9.5V8H12.5ZM8 5H5V8H8V5ZM14 8H17V5H14V8ZM3.5 0.5H18.5C20.1545 0.5 21.5 1.8455 21.5 3.5V9.5C21.4997 10.0263 21.361 10.5433 21.0977 10.9991C20.8344 11.4549 20.4558 11.8333 20 12.0965V13.625C20 14.6585 19.1585 15.5 18.125 15.5H13.25C13.1514 15.5002 13.0538 15.4809 12.9627 15.4433C12.8716 15.4058 12.7888 15.3506 12.719 15.281L11 13.562L9.281 15.281C9.21122 15.3506 9.12841 15.4058 9.0373 15.4433C8.94618 15.4809 8.84856 15.5002 8.75 15.5H3.875C2.8415 15.5 2 14.6585 2 13.625V12.0965C1.54417 11.8333 1.16561 11.4549 0.902318 10.9991C0.639027 10.5433 0.500277 10.0263 0.5 9.5V3.5C0.5 1.8455 1.8455 0.5 3.5 0.5ZM3.875 14H8.4395L9.9395 12.5H3.5V13.625C3.5 13.832 3.668 14 3.875 14ZM18.125 14C18.2245 14 18.3198 13.9605 18.3902 13.8902C18.4605 13.8198 18.5 13.7245 18.5 13.625V12.5H12.0605L13.5605 14H18.125ZM18.5 11C19.328 11 20 10.3265 20 9.5V3.5C20 2.6735 19.328 2 18.5 2H3.5C2.672 2 2 2.6735 2 3.5V9.5C2 10.3265 2.672 11 3.5 11H18.5Z" fill="white"/>
</svg>
