<svg width="27" height="27" viewBox="0 0 27 27" fill="none" xmlns="http://www.w3.org/2000/svg">
<path d="M1.625 23.4038V3.09615C1.625 2.60652 1.8195 2.13695 2.16573 1.79073C2.51195 1.4445 2.98152 1.25 3.47115 1.25H23.7788C24.2685 1.25 24.7381 1.4445 25.0843 1.79073C25.4305 2.13695 25.625 2.60652 25.625 3.09615V23.4038C25.625 23.8935 25.4305 24.3631 25.0843 24.7093C24.7381 25.0555 24.2685 25.25 23.7788 25.25H18.2404V16.4992H19.5512C19.8498 16.4992 20.1363 16.3806 20.3475 16.1694C20.5587 15.9582 20.6773 15.6718 20.6773 15.3731V13.9515C20.6773 13.6529 20.5587 13.3664 20.3475 13.1552C20.1363 12.944 19.8498 12.8254 19.5512 12.8254H18.3142V11.09C18.3142 9.53923 19.0158 9.53923 19.7173 9.53923H20.6219C20.7705 9.54535 20.9186 9.51876 21.0558 9.46134C21.193 9.40392 21.3159 9.31707 21.4158 9.20692C21.5231 9.10478 21.608 8.9815 21.6652 8.84485C21.7224 8.70821 21.7506 8.56119 21.7481 8.41308V7.04692C21.753 6.89659 21.7283 6.74676 21.6752 6.606C21.6222 6.46524 21.542 6.33631 21.4391 6.22657C21.3362 6.11684 21.2127 6.02846 21.0757 5.96649C20.9386 5.90451 20.7907 5.87016 20.6404 5.86538H18.5173C17.8978 5.8421 17.2807 5.95356 16.7085 6.19207C16.1363 6.43059 15.6227 6.79047 15.2031 7.24687C14.7836 7.70326 14.4682 8.24528 14.2786 8.8355C14.089 9.42571 14.0297 10.05 14.105 10.6654V12.8254H12.9235C12.774 12.8229 12.6256 12.8503 12.4868 12.9058C12.3481 12.9612 12.2217 13.0438 12.1152 13.1486C12.0087 13.2534 11.924 13.3784 11.8663 13.5163C11.8086 13.6541 11.7788 13.8021 11.7788 13.9515V15.3731C11.7788 15.5225 11.8086 15.6705 11.8663 15.8083C11.924 15.9462 12.0087 16.0712 12.1152 16.176C12.2217 16.2808 12.3481 16.3634 12.4868 16.4189C12.6256 16.4744 12.774 16.5017 12.9235 16.4992H14.105V25.25H3.47115C2.98152 25.25 2.51195 25.0555 2.16573 24.7093C1.8195 24.3631 1.625 23.8935 1.625 23.4038Z" stroke="white" stroke-width="2" stroke-linecap="round" stroke-linejoin="round"/>
</svg>
