<svg width="27" height="27" viewBox="0 0 27 27" fill="none" xmlns="http://www.w3.org/2000/svg">
<path d="M19.875 1.25H7.875C4.56129 1.25 1.875 3.93629 1.875 7.25V19.25C1.875 22.5637 4.56129 25.25 7.875 25.25H19.875C23.1887 25.25 25.875 22.5637 25.875 19.25V7.25C25.875 3.93629 23.1887 1.25 19.875 1.25Z" stroke="white" stroke-width="2" stroke-linecap="round" stroke-linejoin="round"/>
<path d="M20.475 6.6499H20.487M18.675 12.4939C18.8231 13.4926 18.6525 14.5126 18.1875 15.4087C17.7225 16.3049 16.9868 17.0316 16.085 17.4855C15.1831 17.9394 14.1611 18.0974 13.1644 17.937C12.1676 17.7766 11.2467 17.306 10.5328 16.5921C9.81891 15.8782 9.34829 14.9574 9.18789 13.9606C9.02749 12.9638 9.18549 11.9418 9.6394 11.04C10.0933 10.1381 10.82 9.40239 11.7162 8.93739C12.6123 8.47239 13.6323 8.30181 14.631 8.4499C15.6497 8.60096 16.5928 9.07566 17.321 9.80387C18.0493 10.5321 18.5239 11.4752 18.675 12.4939Z" stroke="white" stroke-width="2" stroke-linecap="round" stroke-linejoin="round"/>
</svg>
