<svg width="36" height="25" viewBox="0 0 36 25" fill="none" xmlns="http://www.w3.org/2000/svg">
<path fill-rule="evenodd" clip-rule="evenodd" d="M15.6498 6.34334C15.4577 6.23258 15.2384 6.17277 15.0143 6.17002C14.7901 6.16727 14.5693 6.22168 14.3743 6.32768C14.1792 6.43369 14.017 6.5875 13.9041 6.7734C13.7912 6.95931 13.7317 7.17066 13.7317 7.38586V17.1139C13.7317 17.3291 13.7912 17.5405 13.9041 17.7264C14.017 17.9123 14.1792 18.0661 14.3743 18.1721C14.5693 18.2781 14.7901 18.3325 15.0143 18.3298C15.2384 18.327 15.4577 18.2672 15.6498 18.1564L24.0925 13.2924C24.2799 13.1844 24.435 13.0315 24.5427 12.8489C24.6504 12.6662 24.707 12.4598 24.707 12.2499C24.707 12.04 24.6504 11.8336 24.5427 11.6509C24.435 11.4682 24.2799 11.3154 24.0925 11.2074L15.6498 6.34334ZM20.9788 12.2499L16.2645 14.9656V9.53414L20.9788 12.2499Z" fill="white"/>
<path fill-rule="evenodd" clip-rule="evenodd" d="M26.8684 0.318481C21.2149 -0.10616 15.5354 -0.10616 9.88186 0.318481L6.09788 0.603837C4.9798 0.687525 3.92304 1.12806 3.09592 1.85528C2.2688 2.5825 1.7189 3.55457 1.5338 4.61666C0.655399 9.67057 0.655399 14.8293 1.5338 19.8832C1.7189 20.9453 2.2688 21.9174 3.09592 22.6446C3.92304 23.3718 4.9798 23.8124 6.09788 23.8961L9.88018 24.1814C15.535 24.6062 21.2152 24.6062 26.8701 24.1814L30.6524 23.8961C31.7705 23.8124 32.8272 23.3718 33.6544 22.6446C34.4815 21.9174 35.0314 20.9453 35.2165 19.8832C36.0945 14.8295 36.0945 9.67039 35.2165 4.61666C35.0314 3.55457 34.4815 2.5825 33.6544 1.85528C32.8272 1.12806 31.7705 0.687525 30.6524 0.603837L26.8684 0.318481ZM10.0794 2.74401C15.6026 2.32908 21.1511 2.32908 26.6742 2.74401L30.4565 3.02775C31.598 3.11368 32.5317 3.9357 32.7192 5.01875C33.5542 9.80621 33.5542 14.6937 32.7192 19.4811C32.6277 20.0079 32.3552 20.4902 31.9452 20.851C31.5351 21.2119 31.011 21.4305 30.4565 21.4721L26.6742 21.7559C21.1511 22.1708 15.6026 22.1708 10.0794 21.7559L6.29713 21.4721C5.74261 21.4305 5.21856 21.2119 4.80849 20.851C4.39843 20.4902 4.12596 20.0079 4.03451 19.4811C3.19945 14.6937 3.19945 9.80621 4.03451 5.01875C4.12596 4.49194 4.39843 4.00969 4.80849 3.64885C5.21856 3.28801 5.74261 3.06936 6.29713 3.02775L10.0794 2.74401Z" fill="white"/>
</svg>
